# xmcd
#
# Track frame offsets: 
#        150
#        59530
#        70874
#        82432
#        95973
#        111184
#        124532
#        134612
#        141917
#        153337
#        163981
#        164801
#        177284
#        185700
#        188031
#        200530
#        202417
#        204042
#        212561
#        214069
#        216671
#        220307
#        229503
#        241131
#        255226
#        264970
#        276799
#        286743
#        301663
#        312781
#        323973
#        337371
#        347081
#
# Disc length: 4775 seconds
#
# Revision: 0
# Processed by: cddbd v1.5.2PL0 Copyright (c) Steve Scherf et al.
# Submitted via: ExactAudioCopy v0.95b3
#
DISCID=1712a521
DTITLE=The Beatles  - Live 04 - Adelaide Reaction - Purple Chick D 1
DYEAR=1900
DGENRE=
TTITLE0=Interview (Denmark and The Netherlands)
TTITLE1=She Loves You (Denmark and The Netherlands)
TTITLE2=All My Loving (Denmark and The Netherlands)
TTITLE3=Twist And Shout (Denmark and The Netherlands)
TTITLE4=Roll Over Beethoven (Denmark and The Netherlands)
TTITLE5=Long Tall Sally (Denmark and The Netherlands)
TTITLE6=Can't Buy Me Love (Denmark and The Netherlands
TTITLE7=Intro (Miscellaneous Tracks 2005)
TTITLE8=I Saw Her Standing There (Miscellaneous Tracks 2005+ Denmark a
TTITLE8=nd The Netherlands)
TTITLE9=I Want To Hold Your Hand  (Denmark and The Netherlands)
TTITLE10=Intro  (Denmark and The Netherlands)
TTITLE11=All My Loving (Denmark and The Netherlands)
TTITLE12=She Loves You (Denmark and The Netherlands)
TTITLE13=Intro (We'd Like To Carry On)
TTITLE14=Twist And Shout (We'd Like To Carry On)
TTITLE15=Long Tall Sally (We'd Like To Carry On and Vinyl To The Core)
TTITLE16=Intro (We'd Like To Carry On)
TTITLE17=I Saw Her Standing There (We'd Like To Carry On)
TTITLE18=I Want To Hold Your Hand (We'd Like To Carry On)
TTITLE19=Intro (We'd Like To Carry On)
TTITLE20=All My Loving (We'd Like To Carry On)
TTITLE21=Intro (300,000 Beatle Fans Can't Be Wrong)
TTITLE22=I Saw Her Standing There (300,000 Beatle Fans Can't Be Wrong)
TTITLE23=I Want To Hold Your Hand (300,000 Beatle Fans Can't Be Wrong)
TTITLE24=All My Loving (300,000 Beatle Fans Can't Be Wrong)
TTITLE25=She Loves You (300,000 Beatle Fans Can't Be Wrong)
TTITLE26=Till There Was You (300,000 Beatle Fans Can't Be Wrong)
TTITLE27=Roll Over Beethoven (300,000 Beatle Fans Can't Be Wrong)
TTITLE28=Can't Buy Me Love (300,000 Beatle Fans Can't Be Wrong)
TTITLE29=This Boy (300,000 Beatle Fans Can't Be Wrong)
TTITLE30=Twist And Shout (300,000 Beatle Fans Can't Be Wrong)
TTITLE31=Long Tall Sally (300,000 Beatle Fans Can't Be Wrong)
TTITLE32=Outro (300,000 Beatle Fans Can't Be Wrong and 300,000 Beatle Fa
TTITLE32=ns Can't Be Wrong vinyl)
EXTD=
EXTT0=
EXTT1=
EXTT2=
EXTT3=
EXTT4=
EXTT5=
EXTT6=
EXTT7=
EXTT8=
EXTT9=
EXTT10=
EXTT11=
EXTT12=
EXTT13=
EXTT14=
EXTT15=
EXTT16=
EXTT17=
EXTT18=
EXTT19=
EXTT20=
EXTT21=
EXTT22=
EXTT23=
EXTT24=
EXTT25=
EXTT26=
EXTT27=
EXTT28=
EXTT29=
EXTT30=
EXTT31=
EXTT32=
PLAYORDER=
